<svg width="194" height="34" viewBox="0 0 194 34" fill="none" xmlns="http://www.w3.org/2000/svg">
<g filter="url(#filter0_d_34_65)">
<path d="M11.1932 25L4.625 1.72727H9.15909L13.3523 18.8295H13.5682L18.0455 1.72727H22.1705L26.6591 18.8409H26.8636L31.0568 1.72727H35.5909L29.0227 25H24.8636L20.2045 8.67045H20.0227L15.3523 25H11.1932ZM41.5739 25.3523C40.4678 25.3523 39.4716 25.1553 38.5852 24.7614C37.7064 24.3598 37.0095 23.7689 36.4943 22.9886C35.9867 22.2083 35.733 21.2462 35.733 20.1023C35.733 19.1174 35.9148 18.303 36.2784 17.6591C36.642 17.0152 37.1383 16.5 37.767 16.1136C38.3958 15.7273 39.1042 15.4356 39.892 15.2386C40.6875 15.0341 41.5095 14.8864 42.358 14.7955C43.3807 14.6894 44.2102 14.5947 44.8466 14.5114C45.483 14.4205 45.9451 14.2841 46.233 14.1023C46.5284 13.9129 46.6761 13.6212 46.6761 13.2273V13.1591C46.6761 12.303 46.4223 11.6402 45.9148 11.1705C45.4072 10.7008 44.6761 10.4659 43.7216 10.4659C42.714 10.4659 41.9148 10.6856 41.3239 11.125C40.7405 11.5644 40.3466 12.0833 40.142 12.6818L36.3011 12.1364C36.6042 11.0758 37.1042 10.1894 37.8011 9.47727C38.4981 8.75757 39.3504 8.2197 40.358 7.86364C41.3655 7.5 42.4792 7.31818 43.6989 7.31818C44.5398 7.31818 45.3769 7.41667 46.2102 7.61364C47.0436 7.81061 47.8049 8.13636 48.4943 8.59091C49.1837 9.03788 49.7367 9.64773 50.1534 10.4205C50.5777 11.1932 50.7898 12.1591 50.7898 13.3182V25H46.8352V22.6023H46.6989C46.4489 23.0871 46.0966 23.5417 45.642 23.9659C45.1951 24.3826 44.6307 24.7197 43.9489 24.9773C43.2746 25.2273 42.483 25.3523 41.5739 25.3523ZM42.642 22.3295C43.4678 22.3295 44.1837 22.1667 44.7898 21.8409C45.3958 21.5076 45.8617 21.0682 46.1875 20.5227C46.5208 19.9773 46.6875 19.3826 46.6875 18.7386V16.6818C46.5587 16.7879 46.339 16.8864 46.0284 16.9773C45.7254 17.0682 45.3845 17.1477 45.0057 17.2159C44.6269 17.2841 44.2519 17.3447 43.8807 17.3977C43.5095 17.4508 43.1875 17.4962 42.9148 17.5341C42.3011 17.6174 41.7519 17.7538 41.267 17.9432C40.7822 18.1326 40.3996 18.3977 40.1193 18.7386C39.839 19.072 39.6989 19.5038 39.6989 20.0341C39.6989 20.7917 39.9754 21.3636 40.5284 21.75C41.0814 22.1364 41.786 22.3295 42.642 22.3295ZM63.642 7.54545V10.7273H53.608V7.54545H63.642ZM56.0852 3.36364H60.1989V19.75C60.1989 20.303 60.2822 20.7273 60.4489 21.0227C60.6231 21.3106 60.8504 21.5076 61.1307 21.6136C61.411 21.7197 61.7216 21.7727 62.0625 21.7727C62.3201 21.7727 62.5549 21.7538 62.767 21.7159C62.9867 21.678 63.1534 21.6439 63.267 21.6136L63.9602 24.8295C63.7405 24.9053 63.4261 24.9886 63.017 25.0795C62.6155 25.1705 62.1231 25.2235 61.5398 25.2386C60.5095 25.2689 59.5814 25.1136 58.7557 24.7727C57.9299 24.4242 57.2746 23.8864 56.7898 23.1591C56.3125 22.4318 56.0777 21.5227 56.0852 20.4318V3.36364ZM74.6222 25.3409C72.8722 25.3409 71.3608 24.9773 70.0881 24.25C68.8229 23.5152 67.8494 22.4773 67.1676 21.1364C66.4858 19.7879 66.1449 18.2008 66.1449 16.375C66.1449 14.5795 66.4858 13.0038 67.1676 11.6477C67.857 10.2841 68.8191 9.22348 70.054 8.46591C71.2888 7.70076 72.7396 7.31818 74.4062 7.31818C75.482 7.31818 76.4972 7.49242 77.4517 7.84091C78.4138 8.18182 79.2623 8.71212 79.9972 9.43182C80.7396 10.1515 81.3229 11.0682 81.7472 12.1818C82.1714 13.2879 82.3835 14.6061 82.3835 16.1364V17.3977H68.0767V14.625H78.4403C78.4328 13.8371 78.2623 13.1364 77.929 12.5227C77.5956 11.9015 77.1297 11.4129 76.5312 11.0568C75.9403 10.7008 75.2509 10.5227 74.4631 10.5227C73.6222 10.5227 72.8835 10.7273 72.2472 11.1364C71.6108 11.5379 71.1146 12.0682 70.7585 12.7273C70.41 13.3788 70.232 14.0947 70.2244 14.875V17.2955C70.2244 18.3106 70.41 19.1818 70.7812 19.9091C71.1525 20.6288 71.6714 21.1818 72.3381 21.5682C73.0047 21.947 73.785 22.1364 74.679 22.1364C75.2775 22.1364 75.8191 22.053 76.304 21.8864C76.7888 21.7121 77.2093 21.4583 77.5653 21.125C77.9214 20.7917 78.1903 20.3788 78.3722 19.8864L82.2131 20.3182C81.9706 21.3333 81.5085 22.2197 80.8267 22.9773C80.1525 23.7273 79.2888 24.3106 78.2358 24.7273C77.1828 25.1364 75.9782 25.3409 74.6222 25.3409ZM85.8636 25V7.54545H89.8523V10.4545H90.0341C90.3523 9.44697 90.8977 8.67045 91.6705 8.125C92.4508 7.57197 93.3409 7.29545 94.3409 7.29545C94.5682 7.29545 94.822 7.30682 95.1023 7.32954C95.3902 7.3447 95.6288 7.37121 95.8182 7.40909V11.1932C95.6439 11.1326 95.3674 11.0795 94.9886 11.0341C94.6174 10.9811 94.2576 10.9545 93.9091 10.9545C93.1591 10.9545 92.4848 11.1174 91.8864 11.4432C91.2955 11.7614 90.8295 12.2045 90.4886 12.7727C90.1477 13.3409 89.9773 13.9962 89.9773 14.7386V25H85.8636Z" fill="white"/>
<path d="M102.435 25L97.5028 7.54545H101.696L104.764 19.8182H104.923L108.06 7.54545H112.207L115.344 19.75H115.514L118.537 7.54545H122.741L117.798 25H113.514L110.241 13.2045H110.003L106.73 25H102.435ZM125.614 25V7.54545H129.727V25H125.614ZM127.682 5.06818C127.03 5.06818 126.47 4.85227 126 4.42045C125.53 3.98106 125.295 3.45454 125.295 2.84091C125.295 2.2197 125.53 1.69318 126 1.26136C126.47 0.821969 127.03 0.602272 127.682 0.602272C128.341 0.602272 128.902 0.821969 129.364 1.26136C129.833 1.69318 130.068 2.2197 130.068 2.84091C130.068 3.45454 129.833 3.98106 129.364 4.42045C128.902 4.85227 128.341 5.06818 127.682 5.06818ZM142.673 7.54545V10.7273H132.639V7.54545H142.673ZM135.116 3.36364H139.23V19.75C139.23 20.303 139.313 20.7273 139.48 21.0227C139.654 21.3106 139.882 21.5076 140.162 21.6136C140.442 21.7197 140.753 21.7727 141.094 21.7727C141.351 21.7727 141.586 21.7538 141.798 21.7159C142.018 21.678 142.185 21.6439 142.298 21.6136L142.991 24.8295C142.772 24.9053 142.457 24.9886 142.048 25.0795C141.647 25.1705 141.154 25.2235 140.571 25.2386C139.541 25.2689 138.613 25.1136 137.787 24.7727C136.961 24.4242 136.306 23.8864 135.821 23.1591C135.344 22.4318 135.109 21.5227 135.116 20.4318V3.36364ZM153.54 25.3409C151.797 25.3409 150.301 24.9583 149.051 24.1932C147.809 23.428 146.85 22.3712 146.176 21.0227C145.509 19.6667 145.176 18.1061 145.176 16.3409C145.176 14.5682 145.517 13.0038 146.199 11.6477C146.881 10.2841 147.843 9.22348 149.085 8.46591C150.335 7.70076 151.813 7.31818 153.517 7.31818C154.934 7.31818 156.188 7.57955 157.278 8.10227C158.377 8.61742 159.252 9.34848 159.903 10.2955C160.555 11.2348 160.926 12.3333 161.017 13.5909H157.085C156.926 12.75 156.547 12.0492 155.949 11.4886C155.358 10.9205 154.566 10.6364 153.574 10.6364C152.733 10.6364 151.994 10.8636 151.358 11.3182C150.722 11.7652 150.225 12.4091 149.869 13.25C149.521 14.0909 149.347 15.0985 149.347 16.2727C149.347 17.4621 149.521 18.4848 149.869 19.3409C150.218 20.1894 150.706 20.8447 151.335 21.3068C151.972 21.7614 152.718 21.9886 153.574 21.9886C154.18 21.9886 154.722 21.875 155.199 21.6477C155.684 21.4129 156.089 21.0758 156.415 20.6364C156.741 20.197 156.964 19.6629 157.085 19.0341H161.017C160.919 20.2689 160.555 21.3636 159.926 22.3182C159.297 23.2652 158.441 24.0076 157.358 24.5455C156.275 25.0758 155.002 25.3409 153.54 25.3409ZM168.509 14.7727V25H164.395V1.72727H168.418V10.5114H168.622C169.031 9.52651 169.664 8.75 170.52 8.18182C171.384 7.60606 172.482 7.31818 173.815 7.31818C175.027 7.31818 176.084 7.57197 176.986 8.07954C177.887 8.58712 178.584 9.32954 179.077 10.3068C179.577 11.2841 179.827 12.4773 179.827 13.8864V25H175.713V14.5227C175.713 13.3485 175.41 12.4356 174.804 11.7841C174.205 11.125 173.365 10.7955 172.281 10.7955C171.554 10.7955 170.902 10.9545 170.327 11.2727C169.759 11.5833 169.312 12.0341 168.986 12.625C168.668 13.2159 168.509 13.9318 168.509 14.7727ZM186.554 25.25C185.865 25.25 185.274 25.0076 184.781 24.5227C184.289 24.0379 184.046 23.447 184.054 22.75C184.046 22.0682 184.289 21.4848 184.781 21C185.274 20.5152 185.865 20.2727 186.554 20.2727C187.221 20.2727 187.8 20.5152 188.293 21C188.793 21.4848 189.046 22.0682 189.054 22.75C189.046 23.2121 188.925 23.6326 188.69 24.0114C188.463 24.3902 188.16 24.6932 187.781 24.9205C187.41 25.1402 187.001 25.25 186.554 25.25Z" fill="#F5134A"/>
</g>
<defs>
<filter id="filter0_d_34_65" x="0.625" y="0.602264" width="192.429" height="32.75" filterUnits="userSpaceOnUse" color-interpolation-filters="sRGB">
<feFlood flood-opacity="0" result="BackgroundImageFix"/>
<feColorMatrix in="SourceAlpha" type="matrix" values="0 0 0 0 0 0 0 0 0 0 0 0 0 0 0 0 0 0 127 0" result="hardAlpha"/>
<feOffset dy="4"/>
<feGaussianBlur stdDeviation="2"/>
<feComposite in2="hardAlpha" operator="out"/>
<feColorMatrix type="matrix" values="0 0 0 0 0 0 0 0 0 0 0 0 0 0 0 0 0 0 1 0"/>
<feBlend mode="normal" in2="BackgroundImageFix" result="effect1_dropShadow_34_65"/>
<feBlend mode="normal" in="SourceGraphic" in2="effect1_dropShadow_34_65" result="shape"/>
</filter>
</defs>
</svg>
